<svg xmlns="http://www.w3.org/2000/svg" xmlns:xlink="http://www.w3.org/1999/xlink" xmlns:lucid="lucid" width="1367.48" height="1110"><g transform="translate(3266.5 621)" lucid:page-tab-id="0_0"><path d="M-2279.52-475a5 5 0 0 1 5-5h350a5 5 0 0 1 5 5v222a5 5 0 0 1-5 5h-350a5 5 0 0 1-5-5z" fill="#fff"/><path d="M-2279.52-408v33h360v-33M-2279.52-344v33h360v-33M-2279.52-280v27a5 5 0 0 0 5 5h350a5 5 0 0 0 5-5v-27" fill="#e6e6e6"/><path d="M-2279.52-440v-35a5 5 0 0 1 5-5h350a5 5 0 0 1 5 5v35" fill="#ccc"/><path d="M-2279.52-475a5 5 0 0 1 5-5h350a5 5 0 0 1 5 5v222a5 5 0 0 1-5 5h-350a5 5 0 0 1-5-5zM-2279.52-440h360M-2106.7-440v192" stroke="#333" fill="none"/><use xlink:href="#a" transform="matrix(1,0,0,1,-2269.521307019401,-480) translate(0 23.6)"/><use xlink:href="#b" transform="matrix(1,0,0,1,-2274.521307019401,-437.5) translate(0 17.1)"/><use xlink:href="#c" transform="matrix(1,0,0,1,-2101.6879736860674,-437.5) translate(0 17.1)"/><use xlink:href="#d" transform="matrix(1,0,0,1,-2274.521307019401,-405.5) translate(0 17.1)"/><use xlink:href="#e" transform="matrix(1,0,0,1,-2101.6879736860674,-405.5) translate(0 17.1)"/><use xlink:href="#f" transform="matrix(1,0,0,1,-2274.521307019401,-373.5) translate(0 17.1)"/><use xlink:href="#e" transform="matrix(1,0,0,1,-2101.6879736860674,-373.5) translate(0 17.1)"/><use xlink:href="#g" transform="matrix(1,0,0,1,-2274.521307019401,-341.5) translate(0 17.1)"/><use xlink:href="#e" transform="matrix(1,0,0,1,-2101.6879736860674,-341.5) translate(0 17.1)"/><use xlink:href="#h" transform="matrix(1,0,0,1,-2274.521307019401,-309.5) translate(0 17.1)"/><use xlink:href="#e" transform="matrix(1,0,0,1,-2101.6879736860674,-309.5) translate(0 17.1)"/><use xlink:href="#i" transform="matrix(1,0,0,1,-2274.521307019401,-277.5) translate(0 17.1)"/><use xlink:href="#j" transform="matrix(1,0,0,1,-2101.6879736860674,-277.5) translate(0 17.1)"/><path d="M-2280-35a5 5 0 0 1 5-5h350a5 5 0 0 1 5 5v222a5 5 0 0 1-5 5h-350a5 5 0 0 1-5-5z" fill="#fff"/><path d="M-2280 32v33h360V32M-2280 96v33h360V96M-2280 160v27a5 5 0 0 0 5 5h350a5 5 0 0 0 5-5v-27" fill="#e6e6e6"/><path d="M-2280 0v-35a5 5 0 0 1 5-5h350a5 5 0 0 1 5 5V0" fill="#ccc"/><path d="M-2280-35a5 5 0 0 1 5-5h350a5 5 0 0 1 5 5v222a5 5 0 0 1-5 5h-350a5 5 0 0 1-5-5zM-2280 0h360M-2105.9 0v192" stroke="#333" fill="none"/><use xlink:href="#k" transform="matrix(1,0,0,1,-2270,-40) translate(0 23.6)"/><use xlink:href="#b" transform="matrix(1,0,0,1,-2275,2.5) translate(0 17.1)"/><use xlink:href="#c" transform="matrix(1,0,0,1,-2100.9037412327652,2.5) translate(0 17.1)"/><use xlink:href="#l" transform="matrix(1,0,0,1,-2275,34.5) translate(0 17.1)"/><use xlink:href="#e" transform="matrix(1,0,0,1,-2100.9037412327652,34.5) translate(0 17.1)"/><use xlink:href="#m" transform="matrix(1,0,0,1,-2275,66.5) translate(0 17.1)"/><use xlink:href="#e" transform="matrix(1,0,0,1,-2100.9037412327652,66.5) translate(0 17.1)"/><use xlink:href="#n" transform="matrix(1,0,0,1,-2275,98.5) translate(0 17.1)"/><use xlink:href="#e" transform="matrix(1,0,0,1,-2100.9037412327652,98.5) translate(0 17.1)"/><use xlink:href="#o" transform="matrix(1,0,0,1,-2275,130.5) translate(0 17.1)"/><use xlink:href="#e" transform="matrix(1,0,0,1,-2100.9037412327652,130.5) translate(0 17.1)"/><use xlink:href="#p" transform="matrix(1,0,0,1,-2275,162.5) translate(0 17.1)"/><use xlink:href="#c" transform="matrix(1,0,0,1,-2100.9037412327652,162.5) translate(0 17.1)"/><path d="M-2986.85-592a8 8 0 0 1 8-8h836.75a8 8 0 0 1 8 8v25.15a8 8 0 0 1-8 8h-836.75a8 8 0 0 1-8-8z" stroke="#000" stroke-opacity="0" stroke-width="2" fill="#fff" fill-opacity="0"/><use xlink:href="#q" transform="matrix(1,0,0,1,-2982.8534472146566,-596) translate(282.2069135802469 25.782777777777778)"/><use xlink:href="#r" transform="matrix(1,0,0,1,-2982.8534472146566,-596) translate(394.2340740740741 25.782777777777778)"/><use xlink:href="#s" transform="matrix(1,0,0,1,-2982.8534472146566,-596) translate(473.5562962962963 25.782777777777778)"/><path d="M-2898.03-560.2h681.06M-2898-560.2h-1.03M-2217-560.2h1.03" stroke="#a9afb8" stroke-width="2" fill="none"/><path d="M-2986.85-550.85a8 8 0 0 1 8-8h837.7a8 8 0 0 1 8 8v2.85a8 8 0 0 1-8 8h-837.7a8 8 0 0 1-8-8z" stroke="#000" stroke-opacity="0" stroke-width="2" fill="#fff" fill-opacity="0"/><use xlink:href="#t" transform="matrix(1,0,0,1,-2982.853447214656,-554.8447760431011) translate(307.5937448559671 14.917037037037037)"/><use xlink:href="#u" transform="matrix(1,0,0,1,-2982.853447214656,-554.8447760431011) translate(357.60413580246916 14.917037037037037)"/><use xlink:href="#v" transform="matrix(1,0,0,1,-2982.853447214656,-554.8447760431011) translate(377.1069135802469 14.917037037037037)"/><use xlink:href="#w" transform="matrix(1,0,0,1,-2982.853447214656,-554.8447760431011) translate(398.3517695473251 14.917037037037037)"/><use xlink:href="#x" transform="matrix(1,0,0,1,-2982.853447214656,-554.8447760431011) translate(450.1892181069959 14.917037037037037)"/><use xlink:href="#y" transform="matrix(1,0,0,1,-2982.853447214656,-554.8447760431011) translate(462.6387037037037 14.917037037037037)"/><use xlink:href="#z" transform="matrix(1,0,0,1,-2982.853447214656,-554.8447760431011) translate(494.0386008230453 14.917037037037037)"/><use xlink:href="#A" transform="matrix(1,0,0,1,-2982.853447214656,-554.8447760431011) translate(511.0344855967078 14.917037037037037)"/><path d="M-2760-35a5 5 0 0 1 5-5h350a5 5 0 0 1 5 5v190a5 5 0 0 1-5 5h-350a5 5 0 0 1-5-5z" fill="#fff"/><path d="M-2760 32v33h360V32M-2760 96v33h360V96" fill="#e6e6e6"/><path d="M-2760 0v-35a5 5 0 0 1 5-5h350a5 5 0 0 1 5 5V0" fill="#ccc"/><path d="M-2760-35a5 5 0 0 1 5-5h350a5 5 0 0 1 5 5v190a5 5 0 0 1-5 5h-350a5 5 0 0 1-5-5zM-2760 0h360M-2584.14 0v160" stroke="#333" fill="none"/><use xlink:href="#B" transform="matrix(1,0,0,1,-2750,-40) translate(0 23.6)"/><use xlink:href="#b" transform="matrix(1,0,0,1,-2755,2.5) translate(0 17.1)"/><use xlink:href="#c" transform="matrix(1,0,0,1,-2579.137508244698,2.5) translate(0 17.1)"/><use xlink:href="#C" transform="matrix(1,0,0,1,-2755,34.5) translate(0 17.1)"/><use xlink:href="#D" transform="matrix(1,0,0,1,-2579.137508244698,34.5) translate(0 17.1)"/><use xlink:href="#E" transform="matrix(1,0,0,1,-2755,66.5) translate(0 17.1)"/><use xlink:href="#F" transform="matrix(1,0,0,1,-2579.137508244698,66.5) translate(0 17.1)"/><use xlink:href="#G" transform="matrix(1,0,0,1,-2755,98.5) translate(0 17.1)"/><use xlink:href="#c" transform="matrix(1,0,0,1,-2579.137508244698,98.5) translate(0 17.1)"/><use xlink:href="#H" transform="matrix(1,0,0,1,-2755,130.5) translate(0 17.1)"/><use xlink:href="#c" transform="matrix(1,0,0,1,-2579.137508244698,130.5) translate(0 17.1)"/><path d="M-2379.02-392h79" stroke="#5e5e5e" stroke-width="2" fill="none"/><path d="M-2398.57-402l20 10-20 10" stroke="#5e5e5e" stroke-width="2" fill="#fff" fill-opacity="0"/><path d="M-2398.57-392h20M-2378.57-382v-20M-2290.02-402v20M-2280.02-392h-20M-2300.02-402v20" stroke="#5e5e5e" stroke-width="2" fill="#fff"/><path d="M-2573.17-99.5v39" stroke="#5e5e5e" stroke-width="2" fill="none"/><path d="M-2583.17-109.5h20M-2573.17-119.5v20M-2583.17-99.5h20M-2563.17-50.5h-20M-2573.17-40.5v-20M-2563.17-60.5h-20" stroke="#5e5e5e" stroke-width="2" fill="#fff"/><path d="M-3240-35a5 5 0 0 1 5-5h350a5 5 0 0 1 5 5v158a5 5 0 0 1-5 5h-350a5 5 0 0 1-5-5z" fill="#fff"/><path d="M-3240 32v33h360V32M-3240 96v27a5 5 0 0 0 5 5h350a5 5 0 0 0 5-5V96" fill="#e6e6e6"/><path d="M-3240 0v-35a5 5 0 0 1 5-5h350a5 5 0 0 1 5 5V0" fill="#ccc"/><path d="M-3240-35a5 5 0 0 1 5-5h350a5 5 0 0 1 5 5v158a5 5 0 0 1-5 5h-350a5 5 0 0 1-5-5zM-3240 0h360M-3076.94 0v128" stroke="#333" fill="none"/><use xlink:href="#I" transform="matrix(1,0,0,1,-3230,-40) translate(0 23.6)"/><use xlink:href="#b" transform="matrix(1,0,0,1,-3235,2.5) translate(0 17.1)"/><use xlink:href="#c" transform="matrix(1,0,0,1,-3071.943591827255,2.5) translate(0 17.1)"/><use xlink:href="#d" transform="matrix(1,0,0,1,-3235,34.5) translate(0 17.1)"/><use xlink:href="#e" transform="matrix(1,0,0,1,-3071.943591827255,34.5) translate(0 17.1)"/><use xlink:href="#J" transform="matrix(1,0,0,1,-3235,66.5) translate(0 17.1)"/><use xlink:href="#K" transform="matrix(1,0,0,1,-3071.943591827255,66.5) translate(0 17.1)"/><use xlink:href="#L" transform="matrix(1,0,0,1,-3235,98.5) translate(0 17.1)"/><use xlink:href="#M" transform="matrix(1,0,0,1,-3071.943591827255,98.5) translate(0 17.1)"/><use xlink:href="#N" transform="matrix(1,0,0,1,-3071.943591827255,98.5) translate(58.95 17.1)"/><path d="M-2859.5 80h79" stroke="#5e5e5e" stroke-width="2" fill="none"/><path d="M-2869.5 90V70M-2879.5 80h20M-2859.5 90V70" stroke="#5e5e5e" stroke-width="2" fill="#fff"/><path d="M-2760.95 90l-20-10 20-10" stroke="#5e5e5e" stroke-width="2" fill="#fff" fill-opacity="0"/><path d="M-2760.95 80h-20M-2780.95 70v20" stroke="#5e5e5e" stroke-width="2" fill="#fff"/><path d="M-2760 305.5a5 5 0 0 1 5-5h350a5 5 0 0 1 5 5v158a5 5 0 0 1-5 5h-350a5 5 0 0 1-5-5z" fill="#fff"/><path d="M-2760 372.5v33h360v-33M-2760 436.5v27a5 5 0 0 0 5 5h350a5 5 0 0 0 5-5v-27" fill="#e6e6e6"/><path d="M-2760 340.5v-35a5 5 0 0 1 5-5h350a5 5 0 0 1 5 5v35" fill="#ccc"/><path d="M-2760 305.5a5 5 0 0 1 5-5h350a5 5 0 0 1 5 5v158a5 5 0 0 1-5 5h-350a5 5 0 0 1-5-5zM-2760 340.5h360M-2569.33 340.5v128" stroke="#333" fill="none"/><use xlink:href="#O" transform="matrix(1,0,0,1,-2750,300.4999299758525) translate(0 23.6)"/><use xlink:href="#b" transform="matrix(1,0,0,1,-2755,342.9999299758525) translate(0 17.1)"/><use xlink:href="#c" transform="matrix(1,0,0,1,-2564.331214231931,342.9999299758525) translate(0 17.1)"/><use xlink:href="#d" transform="matrix(1,0,0,1,-2755,374.9999299758525) translate(0 17.1)"/><use xlink:href="#e" transform="matrix(1,0,0,1,-2564.331214231931,374.9999299758525) translate(0 17.1)"/><use xlink:href="#g" transform="matrix(1,0,0,1,-2755,406.9999299758525) translate(0 17.1)"/><use xlink:href="#e" transform="matrix(1,0,0,1,-2564.331214231931,406.9999299758525) translate(0 17.1)"/><use xlink:href="#h" transform="matrix(1,0,0,1,-2755,438.9999299758525) translate(0 17.1)"/><use xlink:href="#e" transform="matrix(1,0,0,1,-2564.331214231931,438.9999299758525) translate(0 17.1)"/><path d="M-2586.5 179.32V280" stroke="#5e5e5e" stroke-width="2" fill="none"/><path d="M-2576.5 160.95l-10 20-10-20" stroke="#5e5e5e" stroke-width="2" fill="#fff" fill-opacity="0"/><path d="M-2586.5 160.95v20M-2576.5 290h-20M-2586.5 300v-20M-2576.5 280h-20" stroke="#5e5e5e" stroke-width="2" fill="#fff"/><path d="M-2379.5 80h79" stroke="#5e5e5e" stroke-width="2" fill="none"/><path d="M-2389.5 90V70M-2399.5 80h20M-2379.5 90V70" stroke="#5e5e5e" stroke-width="2" fill="#fff"/><path d="M-2280.95 90l-20-10 20-10" stroke="#5e5e5e" stroke-width="2" fill="#fff" fill-opacity="0"/><path d="M-2280.95 80h-20M-2300.95 70v20" stroke="#5e5e5e" stroke-width="2" fill="#fff"/><path d="M-2759.52-475a5 5 0 0 1 5-5h350a5 5 0 0 1 5 5v350a5 5 0 0 1-5 5h-350a5 5 0 0 1-5-5z" fill="#fff"/><path d="M-2759.52-408v33h360v-33M-2759.52-344v33h360v-33M-2759.52-280v33h360v-33M-2759.52-216v33h360v-33M-2759.52-152v27a5 5 0 0 0 5 5h350a5 5 0 0 0 5-5v-27" fill="#e6e6e6"/><path d="M-2759.52-440v-35a5 5 0 0 1 5-5h350a5 5 0 0 1 5 5v35" fill="#ccc"/><path d="M-2759.52-475a5 5 0 0 1 5-5h350a5 5 0 0 1 5 5v350a5 5 0 0 1-5 5h-350a5 5 0 0 1-5-5zM-2759.52-440h360M-2580.38-440v320" stroke="#333" fill="none"/><use xlink:href="#P" transform="matrix(1,0,0,1,-2749.521307019401,-480) translate(0 23.6)"/><use xlink:href="#b" transform="matrix(1,0,0,1,-2754.521307019401,-437.5) translate(0 17.1)"/><use xlink:href="#c" transform="matrix(1,0,0,1,-2575.3750872228525,-437.5) translate(0 17.1)"/><use xlink:href="#Q" transform="matrix(1,0,0,1,-2754.521307019401,-405.5) translate(0 17.1)"/><use xlink:href="#e" transform="matrix(1,0,0,1,-2575.3750872228525,-405.5) translate(0 17.1)"/><use xlink:href="#R" transform="matrix(1,0,0,1,-2754.521307019401,-373.5) translate(0 17.1)"/><use xlink:href="#e" transform="matrix(1,0,0,1,-2575.3750872228525,-373.5) translate(0 17.1)"/><use xlink:href="#S" transform="matrix(1,0,0,1,-2754.521307019401,-341.5) translate(0 17.1)"/><use xlink:href="#e" transform="matrix(1,0,0,1,-2575.3750872228525,-341.5) translate(0 17.1)"/><use xlink:href="#T" transform="matrix(1,0,0,1,-2754.521307019401,-309.5) translate(0 17.1)"/><use xlink:href="#e" transform="matrix(1,0,0,1,-2575.3750872228525,-309.5) translate(0 17.1)"/><use xlink:href="#U" transform="matrix(1,0,0,1,-2754.521307019401,-277.5) translate(0 17.1)"/><use xlink:href="#K" transform="matrix(1,0,0,1,-2575.3750872228525,-277.5) translate(0 17.1)"/><use xlink:href="#V" transform="matrix(1,0,0,1,-2754.521307019401,-245.5) translate(0 17.1)"/><use xlink:href="#e" transform="matrix(1,0,0,1,-2575.3750872228525,-245.5) translate(0 17.1)"/><use xlink:href="#W" transform="matrix(1,0,0,1,-2754.521307019401,-213.5) translate(0 17.1)"/><use xlink:href="#e" transform="matrix(1,0,0,1,-2575.3750872228525,-213.5) translate(0 17.1)"/><use xlink:href="#p" transform="matrix(1,0,0,1,-2754.521307019401,-181.5) translate(0 17.1)"/><use xlink:href="#c" transform="matrix(1,0,0,1,-2575.3750872228525,-181.5) translate(0 17.1)"/><use xlink:href="#X" transform="matrix(1,0,0,1,-2754.521307019401,-149.5) translate(0 17.1)"/><use xlink:href="#c" transform="matrix(1,0,0,1,-2575.3750872228525,-149.5) translate(0 17.1)"/><path d="M-3246-457a5 5 0 0 1 5-5h350a5 5 0 0 1 5 5v222a5 5 0 0 1-5 5h-350a5 5 0 0 1-5-5z" fill="#fff"/><path d="M-3246-390v33h360v-33M-3246-326v33h360v-33M-3246-262v27a5 5 0 0 0 5 5h350a5 5 0 0 0 5-5v-27" fill="#e6e6e6"/><path d="M-3246-422v-35a5 5 0 0 1 5-5h350a5 5 0 0 1 5 5v35" fill="#ccc"/><path d="M-3246-457a5 5 0 0 1 5-5h350a5 5 0 0 1 5 5v222a5 5 0 0 1-5 5h-350a5 5 0 0 1-5-5zM-3246-422h360M-3073.17-422v192" stroke="#333" fill="none"/><use xlink:href="#Y" transform="matrix(1,0,0,1,-3236,-462) translate(0 23.6)"/><use xlink:href="#Z" transform="matrix(1,0,0,1,-3241,-419.5) translate(0 17.1)"/><use xlink:href="#aa" transform="matrix(1,0,0,1,-3068.1666666666665,-419.5) translate(0 17.1)"/><use xlink:href="#ab" transform="matrix(1,0,0,1,-3241,-387.5) translate(0 17.1)"/><g><use xlink:href="#ac" transform="matrix(1,0,0,1,-3068.1666666666665,-387.5) translate(0 17.1)"/></g><g><use xlink:href="#ad" transform="matrix(1,0,0,1,-3241,-355.5) translate(0 17.1)"/></g><g><use xlink:href="#ac" transform="matrix(1,0,0,1,-3068.1666666666665,-355.5) translate(0 17.1)"/></g><g><use xlink:href="#ae" transform="matrix(1,0,0,1,-3241,-323.5) translate(0 17.1)"/></g><g><use xlink:href="#ac" transform="matrix(1,0,0,1,-3068.1666666666665,-323.5) translate(0 17.1)"/></g><g><use xlink:href="#af" transform="matrix(1,0,0,1,-3241,-291.5) translate(0 17.1)"/></g><g><use xlink:href="#ac" transform="matrix(1,0,0,1,-3068.1666666666665,-291.5) translate(0 17.1)"/></g><g><use xlink:href="#ag" transform="matrix(1,0,0,1,-3241,-259.5) translate(0 17.1)"/></g><g><use xlink:href="#ah" transform="matrix(1,0,0,1,-3068.1666666666665,-259.5) translate(0 17.1)"/></g><defs><path fill="#333" d="M44-68c0 29 11 47 38 47 30 0 42-19 51-41l28 9C148-21 126 4 82 4 31 4 10-29 12-85c3-77 74-140 146-93 12 8 15 23 18 40l-31 5c-1-22-13-36-36-36-52 0-65 49-65 101" id="ai"/><path fill="#333" d="M67 3c-93-2-31-127-26-193h32L48-50c-3 39 53 32 70 12 30-34 30-101 43-152h32L157 0h-30c1-10 6-24 4-33-14 20-29 37-64 36" id="aj"/><path fill="#333" d="M55-144c13 50 104 24 104 88C159 21 15 23 1-39l26-10c6 40 102 42 102-4-13-50-104-23-104-87 0-71 143-71 148-8l-29 4c-5-35-85-37-89 0" id="ak"/><path fill="#333" d="M51-54c-9 22 5 41 31 30L79-1C43 14 10-4 19-52l22-115H19l5-23h22l19-43h21l-9 43h35l-4 23H73" id="al"/><path fill="#333" d="M30-147c31-64 166-65 159 27C183-49 158 1 86 4 9 8 1-88 30-147zM88-20c53 0 68-48 68-100 0-31-11-51-44-50-52 1-68 46-68 97 0 32 13 53 44 53" id="am"/><path fill="#333" d="M248-111c6-24 9-61-24-58-72 9-57 108-77 169h-31l26-142c3-37-50-30-64-10C52-115 50-51 37 0H6l36-190h30c-1 10-6 24-4 32 13-43 101-52 105 5 13-22 29-41 61-41 90 0 28 129 23 194h-31" id="an"/><path fill="#333" d="M111-194c62-3 86 47 72 106H45c-7 38 6 69 45 68 27-1 43-14 53-32l24 11C152-15 129 4 87 4 38 3 12-23 12-71c0-70 32-119 99-123zm44 81c14-66-71-72-95-28-4 8-8 17-11 28h106" id="ao"/><path fill="#333" d="M66-151c12-25 30-51 66-40l-6 26C45-176 58-65 38 0H6l36-190h30" id="ap"/><g id="a"><use transform="matrix(0.05,0,0,0.05,0,0)" xlink:href="#ai"/><use transform="matrix(0.05,0,0,0.05,9,0)" xlink:href="#aj"/><use transform="matrix(0.05,0,0,0.05,19,0)" xlink:href="#ak"/><use transform="matrix(0.05,0,0,0.05,28,0)" xlink:href="#al"/><use transform="matrix(0.05,0,0,0.05,33,0)" xlink:href="#am"/><use transform="matrix(0.05,0,0,0.05,43,0)" xlink:href="#an"/><use transform="matrix(0.05,0,0,0.05,57.95,0)" xlink:href="#ao"/><use transform="matrix(0.05,0,0,0.05,67.95,0)" xlink:href="#ap"/></g><path d="M24-231v-30h32v30H24zM24 0v-190h32V0H24" id="aq"/><path d="M85-194c31 0 48 13 60 33l-1-100h32l1 261h-30c-2-10 0-23-3-31C134-8 116 4 85 4 32 4 16-35 15-94c0-66 23-100 70-100zm9 24c-40 0-46 34-46 75 0 40 6 74 45 74 42 0 51-32 51-76 0-42-9-74-50-73" id="ar"/><g id="b"><use transform="matrix(0.05,0,0,0.05,0,0)" xlink:href="#aq"/><use transform="matrix(0.05,0,0,0.05,3.95,0)" xlink:href="#ar"/></g><path fill="#333" d="M68-162c25-46 127-43 121 31C183-60 169 1 98 4 69 5 53-11 43-31L36 0H5l52-261h31zm88 36c2-27-9-43-34-43-55 0-70 51-70 103 0 29 15 45 43 46 52 0 58-58 61-106" id="as"/><path fill="#333" d="M50-231l6-30h32l-6 30H50zM6 0l37-190h31L37 0H6" id="at"/><path fill="#333" d="M103-194c29 0 47 14 56 36 2-11 5-23 8-32h30L160-5C157 61 82 97 21 62 9 55 4 45 1 30l28-7c7 42 83 31 92-3 4-16 9-38 13-55-13 20-29 36-62 36-40 0-60-25-60-64 0-71 23-131 91-131zm4 24c-53 0-58 54-61 104-2 27 10 44 36 44 49 0 65-50 67-102 1-29-15-46-42-46" id="au"/><path fill="#333" d="M67-158c22-48 132-52 116 29L158 0h-32l25-140c3-38-53-32-70-12C52-117 51-52 38 0H6l36-190h30" id="av"/><g id="c"><use transform="matrix(0.05,0,0,0.05,0,0)" xlink:href="#as"/><use transform="matrix(0.05,0,0,0.05,10,0)" xlink:href="#at"/><use transform="matrix(0.05,0,0,0.05,13.949999999999998,0)" xlink:href="#au"/><use transform="matrix(0.05,0,0,0.05,23.95,0)" xlink:href="#at"/><use transform="matrix(0.05,0,0,0.05,27.899999999999995,0)" xlink:href="#av"/><use transform="matrix(0.05,0,0,0.05,37.9,0)" xlink:href="#al"/></g><path d="M117-194c89-4 53 116 60 194h-32v-121c0-31-8-49-39-48C34-167 62-67 57 0H25l-1-190h30c1 10-1 24 2 32 11-22 29-35 61-36" id="aw"/><path d="M141-36C126-15 110 5 73 4 37 3 15-17 15-53c-1-64 63-63 125-63 3-35-9-54-41-54-24 1-41 7-42 31l-33-3c5-37 33-52 76-52 45 0 72 20 72 64v82c-1 20 7 32 28 27v20c-31 9-61-2-59-35zM48-53c0 20 12 33 32 33 41-3 63-29 60-74-43 2-92-5-92 41" id="ax"/><path d="M210-169c-67 3-38 105-44 169h-31v-121c0-29-5-50-35-48C34-165 62-65 56 0H25l-1-190h30c1 10-1 24 2 32 10-44 99-50 107 0 11-21 27-35 58-36 85-2 47 119 55 194h-31v-121c0-29-5-49-35-48" id="ay"/><path d="M100-194c63 0 86 42 84 106H49c0 40 14 67 53 68 26 1 43-12 49-29l28 8c-11 28-37 45-77 45C44 4 14-33 15-96c1-61 26-98 85-98zm52 81c6-60-76-77-97-28-3 7-6 17-6 28h103" id="az"/><g id="d"><use transform="matrix(0.05,0,0,0.05,0,0)" xlink:href="#aw"/><use transform="matrix(0.05,0,0,0.05,10,0)" xlink:href="#ax"/><use transform="matrix(0.05,0,0,0.05,20,0)" xlink:href="#ay"/><use transform="matrix(0.05,0,0,0.05,34.95,0)" xlink:href="#az"/></g><path fill="#333" d="M89 0H52L20-190h33L74-25l89-165h34" id="aA"/><path fill="#333" d="M165-48c-4 18 1 34 23 27l-3 20c-29 8-62 0-52-35h-2C116-14 99 4 63 4 30 4 8-16 8-49c0-68 71-67 138-67 10-26 0-56-31-54-26 1-42 9-47 31l-32-5c8-67 160-71 144 15-5 28-9 54-15 81zM42-50c3 52 80 24 89-6 7-12 7-24 11-38-47 1-103-4-100 44" id="aB"/><path fill="#333" d="M67-158c15-20 31-36 64-36 94 0 33 127 27 194h-32l25-140c3-38-53-32-70-12C52-117 51-51 37 0H6l51-261h31" id="aC"/><path fill="#333" d="M17-49c1-102 45-165 103-212h30C92-210 49-145 49-46 49 4 63 43 85 75H54C30 43 18 2 17-49" id="aD"/><path fill="#333" d="M123-251c66 0 92 69 53 113C138-94 73-75 39-27h128l-5 27H-2c17-92 123-93 159-163 14-28-1-64-36-62-29 2-46 17-54 41l-30-6c13-36 37-61 86-61" id="aE"/><path fill="#333" d="M151-85c6-55-69-56-94-29H26l34-134h141l-5 27H84l-20 79c41-34 127-11 121 53C199 13 30 38 8-54l29-8C52 0 159-13 151-85" id="aF"/><path fill="#333" d="M98-137C97-35 54 29-4 75h-31C23 23 67-41 67-140c0-50-15-89-37-121h31c24 32 36 73 37 124" id="aG"/><g id="e"><use transform="matrix(0.05,0,0,0.05,0,0)" xlink:href="#aA"/><use transform="matrix(0.05,0,0,0.05,9,0)" xlink:href="#aB"/><use transform="matrix(0.05,0,0,0.05,19,0)" xlink:href="#ap"/><use transform="matrix(0.05,0,0,0.05,24.95,0)" xlink:href="#ai"/><use transform="matrix(0.05,0,0,0.05,33.95,0)" xlink:href="#aC"/><use transform="matrix(0.05,0,0,0.05,43.95,0)" xlink:href="#aB"/><use transform="matrix(0.05,0,0,0.05,53.95,0)" xlink:href="#ap"/><use transform="matrix(0.05,0,0,0.05,59.900000000000006,0)" xlink:href="#aD"/><use transform="matrix(0.05,0,0,0.05,65.85000000000001,0)" xlink:href="#aE"/><use transform="matrix(0.05,0,0,0.05,75.85000000000001,0)" xlink:href="#aF"/><use transform="matrix(0.05,0,0,0.05,85.85000000000001,0)" xlink:href="#aF"/><use transform="matrix(0.05,0,0,0.05,95.85000000000001,0)" xlink:href="#aG"/></g><path d="M96-169c-40 0-48 33-48 73s9 75 48 75c24 0 41-14 43-38l32 2c-6 37-31 61-74 61-59 0-76-41-82-99-10-93 101-131 147-64 4 7 5 14 7 22l-32 3c-4-21-16-35-41-35" id="aH"/><path d="M115-194c55 1 70 41 70 98S169 2 115 4C84 4 66-9 55-30l1 105H24l-1-265h31l2 30c10-21 28-34 59-34zm-8 174c40 0 45-34 45-75s-6-73-45-74c-42 0-51 32-51 76 0 43 10 73 51 73" id="aI"/><path d="M101-234c-31-9-42 10-38 44h38v23H63V0H32v-167H5v-23h27c-7-52 17-82 69-68v24" id="aJ"/><g id="f"><use transform="matrix(0.05,0,0,0.05,0,0)" xlink:href="#aH"/><use transform="matrix(0.05,0,0,0.05,9,0)" xlink:href="#aI"/><use transform="matrix(0.05,0,0,0.05,19,0)" xlink:href="#aJ"/></g><path d="M106-169C34-169 62-67 57 0H25v-261h32l-1 103c12-21 28-36 61-36 89 0 53 116 60 194h-32v-121c2-32-8-49-39-48" id="aK"/><path d="M100-194c62-1 85 37 85 99 1 63-27 99-86 99S16-35 15-95c0-66 28-99 85-99zM99-20c44 1 53-31 53-75 0-43-8-75-51-75s-53 32-53 75 10 74 51 75" id="aL"/><g id="g"><use transform="matrix(0.05,0,0,0.05,0,0)" xlink:href="#aI"/><use transform="matrix(0.05,0,0,0.05,10,0)" xlink:href="#aK"/><use transform="matrix(0.05,0,0,0.05,20,0)" xlink:href="#aL"/><use transform="matrix(0.05,0,0,0.05,30,0)" xlink:href="#aw"/><use transform="matrix(0.05,0,0,0.05,40,0)" xlink:href="#az"/></g><path d="M24 0v-261h32V0H24" id="aM"/><g id="h"><use transform="matrix(0.05,0,0,0.05,0,0)" xlink:href="#az"/><use transform="matrix(0.05,0,0,0.05,10,0)" xlink:href="#ay"/><use transform="matrix(0.05,0,0,0.05,24.950000000000003,0)" xlink:href="#ax"/><use transform="matrix(0.05,0,0,0.05,34.95,0)" xlink:href="#aq"/><use transform="matrix(0.05,0,0,0.05,38.900000000000006,0)" xlink:href="#aM"/></g><path d="M114-163C36-179 61-72 57 0H25l-1-190h30c1 12-1 29 2 39 6-27 23-49 58-41v29" id="aN"/><path d="M177-190C167-65 218 103 67 71c-23-6-38-20-44-43l32-5c15 47 100 32 89-28v-30C133-14 115 1 83 1 29 1 15-40 15-95c0-56 16-97 71-98 29-1 48 16 59 35 1-10 0-23 2-32h30zM94-22c36 0 50-32 50-73 0-42-14-75-50-75-39 0-46 34-46 75s6 73 46 73" id="aO"/><path d="M135-143c-3-34-86-38-87 0 15 53 115 12 119 90S17 21 10-45l28-5c4 36 97 45 98 0-10-56-113-15-118-90-4-57 82-63 122-42 12 7 21 19 24 35" id="aP"/><path d="M59-47c-2 24 18 29 38 22v24C64 9 27 4 27-40v-127H5v-23h24l9-43h21v43h35v23H59v120" id="aQ"/><path d="M-5 72V49h209v23H-5" id="aR"/><g id="i"><use transform="matrix(0.05,0,0,0.05,0,0)" xlink:href="#aN"/><use transform="matrix(0.05,0,0,0.05,5.95,0)" xlink:href="#az"/><use transform="matrix(0.05,0,0,0.05,15.949999999999998,0)" xlink:href="#aO"/><use transform="matrix(0.05,0,0,0.05,25.950000000000003,0)" xlink:href="#aq"/><use transform="matrix(0.05,0,0,0.05,29.899999999999995,0)" xlink:href="#aP"/><use transform="matrix(0.05,0,0,0.05,38.9,0)" xlink:href="#aQ"/><use transform="matrix(0.05,0,0,0.05,43.9,0)" xlink:href="#aN"/><use transform="matrix(0.05,0,0,0.05,49.85,0)" xlink:href="#ax"/><use transform="matrix(0.05,0,0,0.05,59.85,0)" xlink:href="#aQ"/><use transform="matrix(0.05,0,0,0.05,64.85,0)" xlink:href="#aq"/><use transform="matrix(0.05,0,0,0.05,68.8,0)" xlink:href="#aL"/><use transform="matrix(0.05,0,0,0.05,78.8,0)" xlink:href="#aw"/><use transform="matrix(0.05,0,0,0.05,88.8,0)" xlink:href="#aR"/><use transform="matrix(0.05,0,0,0.05,98.8,0)" xlink:href="#ar"/><use transform="matrix(0.05,0,0,0.05,108.80000000000001,0)" xlink:href="#ax"/><use transform="matrix(0.05,0,0,0.05,118.80000000000001,0)" xlink:href="#aQ"/><use transform="matrix(0.05,0,0,0.05,123.80000000000001,0)" xlink:href="#az"/></g><g id="j"><use transform="matrix(0.05,0,0,0.05,0,0)" xlink:href="#ar"/><use transform="matrix(0.05,0,0,0.05,10,0)" xlink:href="#ax"/><use transform="matrix(0.05,0,0,0.05,20,0)" xlink:href="#aQ"/><use transform="matrix(0.05,0,0,0.05,25,0)" xlink:href="#az"/></g><path fill="#333" d="M133-28C103 26-5 8 13-77c13-62 24-115 90-117 29-1 46 15 56 35 2-12 6-24 8-34h31L144 75h-31zM45-64c-2 27 10 43 35 43 54-1 69-50 69-103 0-29-15-46-42-46-53-1-58 58-62 106" id="aS"/><path fill="#333" d="M67-162c32-53 139-36 121 50C175-51 163 2 97 4 68 4 52-11 42-31 38 6 28 39 22 75H-9l50-265h29c-1 10 0 20-3 28zm89 36c0-26-10-43-35-43-54 0-67 50-69 103-1 29 14 45 42 46 53 0 62-58 62-106" id="aT"/><g id="k"><use transform="matrix(0.05,0,0,0.05,0,0)" xlink:href="#ao"/><use transform="matrix(0.05,0,0,0.05,10,0)" xlink:href="#aS"/><use transform="matrix(0.05,0,0,0.05,20,0)" xlink:href="#aj"/><use transform="matrix(0.05,0,0,0.05,30,0)" xlink:href="#at"/><use transform="matrix(0.05,0,0,0.05,33.95,0)" xlink:href="#aT"/><use transform="matrix(0.05,0,0,0.05,43.95,0)" xlink:href="#an"/><use transform="matrix(0.05,0,0,0.05,58.900000000000006,0)" xlink:href="#ao"/><use transform="matrix(0.05,0,0,0.05,68.9,0)" xlink:href="#av"/><use transform="matrix(0.05,0,0,0.05,78.9,0)" xlink:href="#al"/></g><path d="M179-190L93 31C79 59 56 82 12 73V49c39 6 53-20 64-50L1-190h34L92-34l54-156h33" id="aU"/><g id="l"><use transform="matrix(0.05,0,0,0.05,0,0)" xlink:href="#aQ"/><use transform="matrix(0.05,0,0,0.05,5,0)" xlink:href="#aU"/><use transform="matrix(0.05,0,0,0.05,14,0)" xlink:href="#aI"/><use transform="matrix(0.05,0,0,0.05,24,0)" xlink:href="#az"/></g><g id="m"><use transform="matrix(0.05,0,0,0.05,0,0)" xlink:href="#ay"/><use transform="matrix(0.05,0,0,0.05,14.950000000000001,0)" xlink:href="#aL"/><use transform="matrix(0.05,0,0,0.05,24.950000000000003,0)" xlink:href="#ar"/><use transform="matrix(0.05,0,0,0.05,34.95,0)" xlink:href="#az"/><use transform="matrix(0.05,0,0,0.05,44.95,0)" xlink:href="#aM"/></g><path d="M84 4C-5 8 30-112 23-190h32v120c0 31 7 50 39 49 72-2 45-101 50-169h31l1 190h-30c-1-10 1-25-2-33-11 22-28 36-60 37" id="aV"/><path d="M115-194c53 0 69 39 70 98 0 66-23 100-70 100C84 3 66-7 56-30L54 0H23l1-261h32v101c10-23 28-34 59-34zm-8 174c40 0 45-34 45-75 0-40-5-75-45-74-42 0-51 32-51 76 0 43 10 73 51 73" id="aW"/><g id="n"><use transform="matrix(0.05,0,0,0.05,0,0)" xlink:href="#aP"/><use transform="matrix(0.05,0,0,0.05,9,0)" xlink:href="#az"/><use transform="matrix(0.05,0,0,0.05,19,0)" xlink:href="#aN"/><use transform="matrix(0.05,0,0,0.05,24.95,0)" xlink:href="#aq"/><use transform="matrix(0.05,0,0,0.05,28.899999999999995,0)" xlink:href="#ax"/><use transform="matrix(0.05,0,0,0.05,38.9,0)" xlink:href="#aM"/><use transform="matrix(0.05,0,0,0.05,42.85,0)" xlink:href="#aR"/><use transform="matrix(0.05,0,0,0.05,52.85,0)" xlink:href="#aw"/><use transform="matrix(0.05,0,0,0.05,62.85,0)" xlink:href="#aV"/><use transform="matrix(0.05,0,0,0.05,72.85,0)" xlink:href="#ay"/><use transform="matrix(0.05,0,0,0.05,87.8,0)" xlink:href="#aW"/><use transform="matrix(0.05,0,0,0.05,97.8,0)" xlink:href="#az"/><use transform="matrix(0.05,0,0,0.05,107.80000000000001,0)" xlink:href="#aN"/></g><g id="o"><use transform="matrix(0.05,0,0,0.05,0,0)" xlink:href="#ay"/><use transform="matrix(0.05,0,0,0.05,14.950000000000001,0)" xlink:href="#ax"/><use transform="matrix(0.05,0,0,0.05,24.950000000000003,0)" xlink:href="#aw"/><use transform="matrix(0.05,0,0,0.05,34.95,0)" xlink:href="#aV"/><use transform="matrix(0.05,0,0,0.05,44.95,0)" xlink:href="#aJ"/><use transform="matrix(0.05,0,0,0.05,49.95,0)" xlink:href="#ax"/><use transform="matrix(0.05,0,0,0.05,59.95,0)" xlink:href="#aH"/><use transform="matrix(0.05,0,0,0.05,68.95,0)" xlink:href="#aQ"/><use transform="matrix(0.05,0,0,0.05,73.95,0)" xlink:href="#aV"/><use transform="matrix(0.05,0,0,0.05,83.95,0)" xlink:href="#aN"/><use transform="matrix(0.05,0,0,0.05,89.9,0)" xlink:href="#az"/><use transform="matrix(0.05,0,0,0.05,99.9,0)" xlink:href="#aN"/></g><g id="p"><use transform="matrix(0.05,0,0,0.05,0,0)" xlink:href="#aq"/><use transform="matrix(0.05,0,0,0.05,3.95,0)" xlink:href="#aw"/><use transform="matrix(0.05,0,0,0.05,13.949999999999998,0)" xlink:href="#aP"/><use transform="matrix(0.05,0,0,0.05,22.95,0)" xlink:href="#aQ"/><use transform="matrix(0.05,0,0,0.05,27.950000000000003,0)" xlink:href="#ax"/><use transform="matrix(0.05,0,0,0.05,37.95,0)" xlink:href="#aM"/><use transform="matrix(0.05,0,0,0.05,41.900000000000006,0)" xlink:href="#aM"/><use transform="matrix(0.05,0,0,0.05,45.85000000000001,0)" xlink:href="#ax"/><use transform="matrix(0.05,0,0,0.05,55.85,0)" xlink:href="#aQ"/><use transform="matrix(0.05,0,0,0.05,60.85,0)" xlink:href="#aq"/><use transform="matrix(0.05,0,0,0.05,64.80000000000001,0)" xlink:href="#aL"/><use transform="matrix(0.05,0,0,0.05,74.80000000000001,0)" xlink:href="#aw"/><use transform="matrix(0.05,0,0,0.05,84.80000000000001,0)" xlink:href="#aR"/><use transform="matrix(0.05,0,0,0.05,94.80000000000001,0)" xlink:href="#aq"/><use transform="matrix(0.05,0,0,0.05,98.75000000000001,0)" xlink:href="#ar"/></g><path fill="#a9afb8" d="M24-248c120-7 223 5 221 122C244-46 201 0 124 0H24v-248zM76-40c74 7 117-18 117-86 0-67-45-88-117-82v168" id="aX"/><path fill="#a9afb8" d="M25-224v-37h50v37H25zM25 0v-190h50V0H25" id="aY"/><path fill="#a9afb8" d="M133-34C117-15 103 5 69 4 32 3 11-16 11-54c-1-60 55-63 116-61 1-26-3-47-28-47-18 1-26 9-28 27l-52-2c7-38 36-58 82-57s74 22 75 68l1 82c-1 14 12 18 25 15v27c-30 8-71 5-69-32zm-48 3c29 0 43-24 42-57-32 0-66-3-65 30 0 17 8 27 23 27" id="aZ"/><path fill="#a9afb8" d="M195-6C206 82 75 100 31 46c-4-6-6-13-8-21l49-6c3 16 16 24 34 25 40 0 42-37 40-79-11 22-30 35-61 35-53 0-70-43-70-97 0-56 18-96 73-97 30 0 46 14 59 34l2-30h47zm-90-29c32 0 41-27 41-63 0-35-9-62-40-62-32 0-39 29-40 63 0 36 9 62 39 62" id="ba"/><path fill="#a9afb8" d="M135-150c-39-12-60 13-60 57V0H25l-1-190h47c2 13-1 29 3 40 6-28 27-53 61-41v41" id="bb"/><path fill="#a9afb8" d="M220-157c-53 9-28 100-34 157h-49v-107c1-27-5-49-29-50C55-147 81-57 75 0H25l-1-190h47c2 12-1 28 3 38 10-53 101-56 108 0 13-22 24-43 59-42 82 1 51 116 57 194h-49v-107c-1-25-5-48-29-50" id="bc"/><g id="q"><use transform="matrix(0.0728395061728395,0,0,0.0728395061728395,0,0)" xlink:href="#aX"/><use transform="matrix(0.0728395061728395,0,0,0.0728395061728395,18.86543209876543,0)" xlink:href="#aY"/><use transform="matrix(0.0728395061728395,0,0,0.0728395061728395,26.14938271604938,0)" xlink:href="#aZ"/><use transform="matrix(0.0728395061728395,0,0,0.0728395061728395,40.717283950617286,0)" xlink:href="#ba"/><use transform="matrix(0.0728395061728395,0,0,0.0728395061728395,56.66913580246913,0)" xlink:href="#bb"/><use transform="matrix(0.0728395061728395,0,0,0.0728395061728395,66.86666666666666,0)" xlink:href="#aZ"/><use transform="matrix(0.0728395061728395,0,0,0.0728395061728395,81.43456790123457,0)" xlink:href="#bc"/></g><path fill="#a9afb8" d="M275 0h-61l-44-196L126 0H64L0-248h53L97-49l45-199h58l43 199 44-199h52" id="bd"/><path fill="#a9afb8" d="M14-72v-43h91v43H14" id="be"/><path fill="#a9afb8" d="M135-194c87-1 58 113 63 194h-50c-7-57 23-157-34-157-59 0-34 97-39 157H25l-1-190h47c2 12-1 28 3 38 12-26 28-41 61-42" id="bf"/><path fill="#a9afb8" d="M185-48c-13 30-37 53-82 52C43 2 14-33 14-96s30-98 90-98c62 0 83 45 84 108H66c0 31 8 55 39 56 18 0 30-7 34-22zm-45-69c5-46-57-63-70-21-2 6-4 13-4 21h74" id="bg"/><path fill="#a9afb8" d="M115-3C79 11 28 4 28-45v-112H4v-33h27l15-45h31v45h36v33H77v99c-1 23 16 31 38 25v30" id="bh"/><g id="r"><use transform="matrix(0.0728395061728395,0,0,0.0728395061728395,0,0)" xlink:href="#bd"/><use transform="matrix(0.0728395061728395,0,0,0.0728395061728395,24.182716049382716,0)" xlink:href="#be"/><use transform="matrix(0.0728395061728395,0,0,0.0728395061728395,32.85061728395062,0)" xlink:href="#bf"/><use transform="matrix(0.0728395061728395,0,0,0.0728395061728395,48.80246913580247,0)" xlink:href="#bg"/><use transform="matrix(0.0728395061728395,0,0,0.0728395061728395,63.37037037037037,0)" xlink:href="#bh"/></g><path fill="#a9afb8" d="M24 0v-248h52V0H24" id="bi"/><g id="s"><use transform="matrix(0.0728395061728395,0,0,0.0728395061728395,0,0)" xlink:href="#bi"/><use transform="matrix(0.0728395061728395,0,0,0.0728395061728395,7.28395061728395,0)" xlink:href="#bf"/><use transform="matrix(0.0728395061728395,0,0,0.0728395061728395,23.235802469135802,0)" xlink:href="#bh"/><use transform="matrix(0.0728395061728395,0,0,0.0728395061728395,31.90370370370371,0)" xlink:href="#bg"/><use transform="matrix(0.0728395061728395,0,0,0.0728395061728395,46.471604938271604,0)" xlink:href="#bb"/><use transform="matrix(0.0728395061728395,0,0,0.0728395061728395,56.669135802469135,0)" xlink:href="#bf"/><use transform="matrix(0.0728395061728395,0,0,0.0728395061728395,72.62098765432098,0)" xlink:href="#bg"/><use transform="matrix(0.0728395061728395,0,0,0.0728395061728395,87.18888888888888,0)" xlink:href="#bh"/></g><path fill="#a9afb8" d="M240 0l2-218c-23 76-54 145-80 218h-23L58-218 59 0H30v-248h44l77 211c21-75 51-140 76-211h43V0h-30" id="bj"/><path fill="#a9afb8" d="M141-36C126-15 110 5 73 4 37 3 15-17 15-53c-1-64 63-63 125-63 3-35-9-54-41-54-24 1-41 7-42 31l-33-3c5-37 33-52 76-52 45 0 72 20 72 64v82c-1 20 7 32 28 27v20c-31 9-61-2-59-35zM48-53c0 20 12 33 32 33 41-3 63-29 60-74-43 2-92-5-92 41" id="bk"/><path fill="#a9afb8" d="M24-231v-30h32v30H24zM24 0v-190h32V0H24" id="bl"/><path fill="#a9afb8" d="M114-163C36-179 61-72 57 0H25l-1-190h30c1 12-1 29 2 39 6-27 23-49 58-41v29" id="bm"/><path fill="#a9afb8" d="M100-194c63 0 86 42 84 106H49c0 40 14 67 53 68 26 1 43-12 49-29l28 8c-11 28-37 45-77 45C44 4 14-33 15-96c1-61 26-98 85-98zm52 81c6-60-76-77-97-28-3 7-6 17-6 28h103" id="bn"/><path fill="#a9afb8" d="M135-143c-3-34-86-38-87 0 15 53 115 12 119 90S17 21 10-45l28-5c4 36 97 45 98 0-10-56-113-15-118-90-4-57 82-63 122-42 12 7 21 19 24 35" id="bo"/><g id="t"><use transform="matrix(0.04248971193415638,0,0,0.04248971193415638,0,0)" xlink:href="#bj"/><use transform="matrix(0.04248971193415638,0,0,0.04248971193415638,12.704423868312757,0)" xlink:href="#bk"/><use transform="matrix(0.04248971193415638,0,0,0.04248971193415638,21.20236625514403,0)" xlink:href="#bl"/><use transform="matrix(0.04248971193415638,0,0,0.04248971193415638,24.559053497942386,0)" xlink:href="#bm"/><use transform="matrix(0.04248971193415638,0,0,0.04248971193415638,29.615329218106993,0)" xlink:href="#bn"/><use transform="matrix(0.04248971193415638,0,0,0.04248971193415638,38.11327160493827,0)" xlink:href="#bo"/></g><path fill="#a9afb8" d="M233-177c-1 41-23 64-60 70L243 0h-38l-65-103H63V0H30v-248c88 3 205-21 203 71zM63-129c60-2 137 13 137-47 0-61-80-42-137-45v92" id="bp"/><path fill="#a9afb8" d="M33 0v-38h34V0H33" id="bq"/><g id="u"><use transform="matrix(0.04248971193415638,0,0,0.04248971193415638,0,0)" xlink:href="#bp"/><use transform="matrix(0.04248971193415638,0,0,0.04248971193415638,11.004835390946502,0)" xlink:href="#bq"/></g><path fill="#a9afb8" d="M85-194c31 0 48 13 60 33l-1-100h32l1 261h-30c-2-10 0-23-3-31C134-8 116 4 85 4 32 4 16-35 15-94c0-66 23-100 70-100zm9 24c-40 0-46 34-46 75 0 40 6 74 45 74 42 0 51-32 51-76 0-42-9-74-50-73" id="br"/><g id="v"><use transform="matrix(0.04248971193415638,0,0,0.04248971193415638,0,0)" xlink:href="#br"/><use transform="matrix(0.04248971193415638,0,0,0.04248971193415638,8.497942386831275,0)" xlink:href="#bn"/></g><path fill="#a9afb8" d="M185-189c-5-48-123-54-124 2 14 75 158 14 163 119 3 78-121 87-175 55-17-10-28-26-33-46l33-7c5 56 141 63 141-1 0-78-155-14-162-118-5-82 145-84 179-34 5 7 8 16 11 25" id="bs"/><path fill="#a9afb8" d="M100-194c62-1 85 37 85 99 1 63-27 99-86 99S16-35 15-95c0-66 28-99 85-99zM99-20c44 1 53-31 53-75 0-43-8-75-51-75s-53 32-53 75 10 74 51 75" id="bt"/><path fill="#a9afb8" d="M84 4C-5 8 30-112 23-190h32v120c0 31 7 50 39 49 72-2 45-101 50-169h31l1 190h-30c-1-10 1-25-2-33-11 22-28 36-60 37" id="bu"/><path fill="#a9afb8" d="M9 0v-24l116-142H16v-24h144v24L44-24h123V0H9" id="bv"/><g id="w"><use transform="matrix(0.04248971193415638,0,0,0.04248971193415638,0,0)" xlink:href="#bs"/><use transform="matrix(0.04248971193415638,0,0,0.04248971193415638,10.19753086419753,0)" xlink:href="#bt"/><use transform="matrix(0.04248971193415638,0,0,0.04248971193415638,18.695473251028805,0)" xlink:href="#bu"/><use transform="matrix(0.04248971193415638,0,0,0.04248971193415638,27.193415637860078,0)" xlink:href="#bv"/><use transform="matrix(0.04248971193415638,0,0,0.04248971193415638,34.84156378600822,0)" xlink:href="#bk"/></g><path fill="#a9afb8" d="M32 76v-337h29V76H32" id="bw"/><use transform="matrix(0.04248971193415638,0,0,0.04248971193415638,0,0)" xlink:href="#bw" id="x"/><path fill="#a9afb8" d="M153-248C145-148 188 4 80 4 36 3 13-21 6-62l32-5c4 25 16 42 43 43 27 0 39-20 39-49v-147H72v-28h81" id="bx"/><path fill="#a9afb8" d="M24 0v-261h32V0H24" id="by"/><path fill="#a9afb8" d="M179-190L93 31C79 59 56 82 12 73V49c39 6 53-20 64-50L1-190h34L92-34l54-156h33" id="bz"/><g id="y"><use transform="matrix(0.04248971193415638,0,0,0.04248971193415638,0,0)" xlink:href="#bx"/><use transform="matrix(0.04248971193415638,0,0,0.04248971193415638,7.648148148148148,0)" xlink:href="#bu"/><use transform="matrix(0.04248971193415638,0,0,0.04248971193415638,16.14609053497942,0)" xlink:href="#by"/><use transform="matrix(0.04248971193415638,0,0,0.04248971193415638,19.502777777777776,0)" xlink:href="#bz"/></g><path fill="#a9afb8" d="M110-160c48 1 74 30 74 79 0 53-28 85-80 85-65 0-83-55-86-122-5-90 50-162 133-122 14 7 22 21 27 39l-31 6c-5-40-67-38-82-6-9 19-15 44-15 74 11-20 30-34 60-33zm-7 138c34 0 49-23 49-58s-16-56-50-56c-29 0-50 16-49 49 1 36 15 65 50 65" id="bA"/><path fill="#a9afb8" d="M68-38c1 34 0 65-14 84H32c9-13 17-26 17-46H33v-38h35" id="bB"/><g id="z"><use transform="matrix(0.04248971193415638,0,0,0.04248971193415638,0,0)" xlink:href="#bA"/><use transform="matrix(0.04248971193415638,0,0,0.04248971193415638,8.497942386831275,0)" xlink:href="#bB"/></g><path fill="#a9afb8" d="M101-251c82-7 93 87 43 132L82-64C71-53 59-42 53-27h129V0H18c2-99 128-94 128-182 0-28-16-43-45-43s-46 15-49 41l-32-3c6-41 34-60 81-64" id="bC"/><path fill="#a9afb8" d="M101-251c68 0 85 55 85 127S166 4 100 4C33 4 14-52 14-124c0-73 17-127 87-127zm-1 229c47 0 54-49 54-102s-4-102-53-102c-51 0-55 48-55 102 0 53 5 102 54 102" id="bD"/><path fill="#a9afb8" d="M155-56V0h-30v-56H8v-25l114-167h33v167h35v25h-35zm-30-156c-27 46-58 90-88 131h88v-131" id="bE"/><g id="A"><use transform="matrix(0.04248971193415638,0,0,0.04248971193415638,0,0)" xlink:href="#bC"/><use transform="matrix(0.04248971193415638,0,0,0.04248971193415638,8.497942386831275,0)" xlink:href="#bD"/><use transform="matrix(0.04248971193415638,0,0,0.04248971193415638,16.99588477366255,0)" xlink:href="#bC"/><use transform="matrix(0.04248971193415638,0,0,0.04248971193415638,25.493827160493822,0)" xlink:href="#bE"/></g><path fill="#333" d="M6 0l50-261h32L37 0H6" id="bF"/><g id="B"><use transform="matrix(0.05,0,0,0.05,0,0)" xlink:href="#at"/><use transform="matrix(0.05,0,0,0.05,3.95,0)" xlink:href="#av"/><use transform="matrix(0.05,0,0,0.05,13.949999999999998,0)" xlink:href="#ak"/><use transform="matrix(0.05,0,0,0.05,22.95,0)" xlink:href="#al"/><use transform="matrix(0.05,0,0,0.05,27.950000000000003,0)" xlink:href="#aB"/><use transform="matrix(0.05,0,0,0.05,37.95,0)" xlink:href="#bF"/><use transform="matrix(0.05,0,0,0.05,41.900000000000006,0)" xlink:href="#bF"/><use transform="matrix(0.05,0,0,0.05,45.85000000000001,0)" xlink:href="#aB"/><use transform="matrix(0.05,0,0,0.05,55.85,0)" xlink:href="#al"/><use transform="matrix(0.05,0,0,0.05,60.85,0)" xlink:href="#at"/><use transform="matrix(0.05,0,0,0.05,64.80000000000001,0)" xlink:href="#am"/><use transform="matrix(0.05,0,0,0.05,74.80000000000001,0)" xlink:href="#av"/></g><g id="C"><use transform="matrix(0.05,0,0,0.05,0,0)" xlink:href="#aq"/><use transform="matrix(0.05,0,0,0.05,3.95,0)" xlink:href="#aw"/><use transform="matrix(0.05,0,0,0.05,13.949999999999998,0)" xlink:href="#aP"/><use transform="matrix(0.05,0,0,0.05,22.95,0)" xlink:href="#aQ"/><use transform="matrix(0.05,0,0,0.05,27.950000000000003,0)" xlink:href="#ax"/><use transform="matrix(0.05,0,0,0.05,37.95,0)" xlink:href="#aM"/><use transform="matrix(0.05,0,0,0.05,41.900000000000006,0)" xlink:href="#aM"/><use transform="matrix(0.05,0,0,0.05,45.85000000000001,0)" xlink:href="#ax"/><use transform="matrix(0.05,0,0,0.05,55.85,0)" xlink:href="#aQ"/><use transform="matrix(0.05,0,0,0.05,60.85,0)" xlink:href="#aq"/><use transform="matrix(0.05,0,0,0.05,64.80000000000001,0)" xlink:href="#aL"/><use transform="matrix(0.05,0,0,0.05,74.80000000000001,0)" xlink:href="#aw"/><use transform="matrix(0.05,0,0,0.05,84.80000000000001,0)" xlink:href="#aR"/><use transform="matrix(0.05,0,0,0.05,94.80000000000001,0)" xlink:href="#ar"/><use transform="matrix(0.05,0,0,0.05,104.80000000000001,0)" xlink:href="#ax"/><use transform="matrix(0.05,0,0,0.05,114.80000000000001,0)" xlink:href="#aQ"/><use transform="matrix(0.05,0,0,0.05,119.80000000000001,0)" xlink:href="#az"/></g><path fill="#333" d="M133-28C103 26-5 8 13-77c13-62 24-115 90-117 29-1 46 15 56 35l19-102h32L160 0h-30zM45-64c-2 27 10 43 35 43 54-1 69-50 69-103 0-29-15-46-42-46-53-1-58 58-62 106" id="bG"/><g id="D"><use transform="matrix(0.05,0,0,0.05,0,0)" xlink:href="#bG"/><use transform="matrix(0.05,0,0,0.05,10,0)" xlink:href="#aB"/><use transform="matrix(0.05,0,0,0.05,20,0)" xlink:href="#al"/><use transform="matrix(0.05,0,0,0.05,25,0)" xlink:href="#ao"/></g><path d="M108 0H70L1-190h34L89-25l56-165h34" id="bH"/><g id="E"><use transform="matrix(0.05,0,0,0.05,0,0)" xlink:href="#aq"/><use transform="matrix(0.05,0,0,0.05,3.95,0)" xlink:href="#aP"/><use transform="matrix(0.05,0,0,0.05,12.949999999999998,0)" xlink:href="#aR"/><use transform="matrix(0.05,0,0,0.05,22.95,0)" xlink:href="#ax"/><use transform="matrix(0.05,0,0,0.05,32.95,0)" xlink:href="#aH"/><use transform="matrix(0.05,0,0,0.05,41.95,0)" xlink:href="#aQ"/><use transform="matrix(0.05,0,0,0.05,46.95,0)" xlink:href="#aq"/><use transform="matrix(0.05,0,0,0.05,50.900000000000006,0)" xlink:href="#bH"/><use transform="matrix(0.05,0,0,0.05,59.900000000000006,0)" xlink:href="#az"/></g><g id="F"><use transform="matrix(0.05,0,0,0.05,0,0)" xlink:href="#as"/><use transform="matrix(0.05,0,0,0.05,10,0)" xlink:href="#am"/><use transform="matrix(0.05,0,0,0.05,20,0)" xlink:href="#am"/><use transform="matrix(0.05,0,0,0.05,30,0)" xlink:href="#bF"/><use transform="matrix(0.05,0,0,0.05,33.95,0)" xlink:href="#ao"/><use transform="matrix(0.05,0,0,0.05,43.95,0)" xlink:href="#aB"/><use transform="matrix(0.05,0,0,0.05,53.95,0)" xlink:href="#av"/></g><g id="G"><use transform="matrix(0.05,0,0,0.05,0,0)" xlink:href="#aQ"/><use transform="matrix(0.05,0,0,0.05,5,0)" xlink:href="#az"/><use transform="matrix(0.05,0,0,0.05,15,0)" xlink:href="#aH"/><use transform="matrix(0.05,0,0,0.05,24,0)" xlink:href="#aK"/><use transform="matrix(0.05,0,0,0.05,34,0)" xlink:href="#aw"/><use transform="matrix(0.05,0,0,0.05,44,0)" xlink:href="#aq"/><use transform="matrix(0.05,0,0,0.05,47.95,0)" xlink:href="#aH"/><use transform="matrix(0.05,0,0,0.05,56.95,0)" xlink:href="#aq"/><use transform="matrix(0.05,0,0,0.05,60.900000000000006,0)" xlink:href="#ax"/><use transform="matrix(0.05,0,0,0.05,70.9,0)" xlink:href="#aw"/><use transform="matrix(0.05,0,0,0.05,80.9,0)" xlink:href="#aR"/><use transform="matrix(0.05,0,0,0.05,90.9,0)" xlink:href="#aq"/><use transform="matrix(0.05,0,0,0.05,94.85000000000001,0)" xlink:href="#ar"/></g><g id="H"><use transform="matrix(0.05,0,0,0.05,0,0)" xlink:href="#aI"/><use transform="matrix(0.05,0,0,0.05,10,0)" xlink:href="#aM"/><use transform="matrix(0.05,0,0,0.05,13.949999999999998,0)" xlink:href="#ax"/><use transform="matrix(0.05,0,0,0.05,23.95,0)" xlink:href="#aw"/><use transform="matrix(0.05,0,0,0.05,33.95,0)" xlink:href="#aR"/><use transform="matrix(0.05,0,0,0.05,43.95,0)" xlink:href="#aq"/><use transform="matrix(0.05,0,0,0.05,47.900000000000006,0)" xlink:href="#ar"/></g><path fill="#333" d="M238-179c0 84-86 86-175 82L45 0H11l48-248c82 0 179-12 179 69zm-34 1c0-53-64-42-116-43l-19 98c63 0 135 9 135-55" id="bI"/><g id="I"><use transform="matrix(0.05,0,0,0.05,0,0)" xlink:href="#bI"/><use transform="matrix(0.05,0,0,0.05,12,0)" xlink:href="#bF"/><use transform="matrix(0.05,0,0,0.05,15.949999999999998,0)" xlink:href="#aB"/><use transform="matrix(0.05,0,0,0.05,25.950000000000003,0)" xlink:href="#av"/></g><g id="J"><use transform="matrix(0.05,0,0,0.05,0,0)" xlink:href="#aP"/><use transform="matrix(0.05,0,0,0.05,9,0)" xlink:href="#aI"/><use transform="matrix(0.05,0,0,0.05,19,0)" xlink:href="#az"/><use transform="matrix(0.05,0,0,0.05,29,0)" xlink:href="#az"/><use transform="matrix(0.05,0,0,0.05,39,0)" xlink:href="#ar"/></g><g id="K"><use transform="matrix(0.05,0,0,0.05,0,0)" xlink:href="#at"/><use transform="matrix(0.05,0,0,0.05,3.95,0)" xlink:href="#av"/><use transform="matrix(0.05,0,0,0.05,13.949999999999998,0)" xlink:href="#al"/><use transform="matrix(0.05,0,0,0.05,18.95,0)" xlink:href="#ao"/><use transform="matrix(0.05,0,0,0.05,28.950000000000003,0)" xlink:href="#au"/><use transform="matrix(0.05,0,0,0.05,38.95,0)" xlink:href="#ao"/><use transform="matrix(0.05,0,0,0.05,48.95,0)" xlink:href="#ap"/></g><g id="L"><use transform="matrix(0.05,0,0,0.05,0,0)" xlink:href="#aI"/><use transform="matrix(0.05,0,0,0.05,10,0)" xlink:href="#aN"/><use transform="matrix(0.05,0,0,0.05,15.949999999999998,0)" xlink:href="#aq"/><use transform="matrix(0.05,0,0,0.05,19.9,0)" xlink:href="#aH"/><use transform="matrix(0.05,0,0,0.05,28.899999999999995,0)" xlink:href="#az"/></g><g id="M"><use transform="matrix(0.05,0,0,0.05,0,0)" xlink:href="#bG"/><use transform="matrix(0.05,0,0,0.05,10,0)" xlink:href="#am"/><use transform="matrix(0.05,0,0,0.05,20,0)" xlink:href="#aj"/><use transform="matrix(0.05,0,0,0.05,30,0)" xlink:href="#as"/><use transform="matrix(0.05,0,0,0.05,40,0)" xlink:href="#bF"/><use transform="matrix(0.05,0,0,0.05,43.95,0)" xlink:href="#ao"/></g><g id="N"><use transform="matrix(0.05,0,0,0.05,0,0)" xlink:href="#aT"/><use transform="matrix(0.05,0,0,0.05,10,0)" xlink:href="#ap"/><use transform="matrix(0.05,0,0,0.05,15.949999999999998,0)" xlink:href="#ao"/><use transform="matrix(0.05,0,0,0.05,25.950000000000003,0)" xlink:href="#ai"/><use transform="matrix(0.05,0,0,0.05,34.95,0)" xlink:href="#at"/><use transform="matrix(0.05,0,0,0.05,38.900000000000006,0)" xlink:href="#ak"/><use transform="matrix(0.05,0,0,0.05,47.900000000000006,0)" xlink:href="#at"/><use transform="matrix(0.05,0,0,0.05,51.85,0)" xlink:href="#am"/><use transform="matrix(0.05,0,0,0.05,61.85,0)" xlink:href="#av"/></g><g id="O"><use transform="matrix(0.05,0,0,0.05,0,0)" xlink:href="#al"/><use transform="matrix(0.05,0,0,0.05,5,0)" xlink:href="#ao"/><use transform="matrix(0.05,0,0,0.05,15,0)" xlink:href="#ai"/><use transform="matrix(0.05,0,0,0.05,24,0)" xlink:href="#aC"/><use transform="matrix(0.05,0,0,0.05,34,0)" xlink:href="#av"/><use transform="matrix(0.05,0,0,0.05,44,0)" xlink:href="#at"/><use transform="matrix(0.05,0,0,0.05,47.95,0)" xlink:href="#ai"/><use transform="matrix(0.05,0,0,0.05,56.95,0)" xlink:href="#at"/><use transform="matrix(0.05,0,0,0.05,60.900000000000006,0)" xlink:href="#aB"/><use transform="matrix(0.05,0,0,0.05,70.9,0)" xlink:href="#av"/></g><g id="P"><use transform="matrix(0.05,0,0,0.05,0,0)" xlink:href="#aB"/><use transform="matrix(0.05,0,0,0.05,10,0)" xlink:href="#bG"/><use transform="matrix(0.05,0,0,0.05,20,0)" xlink:href="#bG"/><use transform="matrix(0.05,0,0,0.05,30,0)" xlink:href="#ap"/><use transform="matrix(0.05,0,0,0.05,35.95,0)" xlink:href="#ao"/><use transform="matrix(0.05,0,0,0.05,45.95,0)" xlink:href="#ak"/><use transform="matrix(0.05,0,0,0.05,54.95,0)" xlink:href="#ak"/></g><g id="Q"><use transform="matrix(0.05,0,0,0.05,0,0)" xlink:href="#aH"/><use transform="matrix(0.05,0,0,0.05,9,0)" xlink:href="#aq"/><use transform="matrix(0.05,0,0,0.05,12.949999999999998,0)" xlink:href="#aQ"/><use transform="matrix(0.05,0,0,0.05,17.95,0)" xlink:href="#aU"/></g><g id="R"><use transform="matrix(0.05,0,0,0.05,0,0)" xlink:href="#aP"/><use transform="matrix(0.05,0,0,0.05,9,0)" xlink:href="#aQ"/><use transform="matrix(0.05,0,0,0.05,14,0)" xlink:href="#ax"/><use transform="matrix(0.05,0,0,0.05,24,0)" xlink:href="#aQ"/><use transform="matrix(0.05,0,0,0.05,29,0)" xlink:href="#az"/></g><path d="M9 0v-24l116-142H16v-24h144v24L44-24h123V0H9" id="bJ"/><g id="S"><use transform="matrix(0.05,0,0,0.05,0,0)" xlink:href="#bJ"/><use transform="matrix(0.05,0,0,0.05,9,0)" xlink:href="#aq"/><use transform="matrix(0.05,0,0,0.05,12.949999999999998,0)" xlink:href="#aI"/><use transform="matrix(0.05,0,0,0.05,22.95,0)" xlink:href="#aR"/><use transform="matrix(0.05,0,0,0.05,32.95,0)" xlink:href="#aH"/><use transform="matrix(0.05,0,0,0.05,41.95,0)" xlink:href="#aL"/><use transform="matrix(0.05,0,0,0.05,51.95,0)" xlink:href="#ar"/><use transform="matrix(0.05,0,0,0.05,61.95,0)" xlink:href="#az"/></g><g id="T"><use transform="matrix(0.05,0,0,0.05,0,0)" xlink:href="#aP"/><use transform="matrix(0.05,0,0,0.05,9,0)" xlink:href="#aQ"/><use transform="matrix(0.05,0,0,0.05,14,0)" xlink:href="#aN"/><use transform="matrix(0.05,0,0,0.05,19.95,0)" xlink:href="#az"/><use transform="matrix(0.05,0,0,0.05,29.950000000000003,0)" xlink:href="#az"/><use transform="matrix(0.05,0,0,0.05,39.95,0)" xlink:href="#aQ"/></g><g id="U"><use transform="matrix(0.05,0,0,0.05,0,0)" xlink:href="#aP"/><use transform="matrix(0.05,0,0,0.05,9,0)" xlink:href="#aQ"/><use transform="matrix(0.05,0,0,0.05,14,0)" xlink:href="#aN"/><use transform="matrix(0.05,0,0,0.05,19.95,0)" xlink:href="#az"/><use transform="matrix(0.05,0,0,0.05,29.950000000000003,0)" xlink:href="#az"/><use transform="matrix(0.05,0,0,0.05,39.95,0)" xlink:href="#aQ"/><use transform="matrix(0.05,0,0,0.05,44.95,0)" xlink:href="#aR"/><use transform="matrix(0.05,0,0,0.05,54.95,0)" xlink:href="#aw"/><use transform="matrix(0.05,0,0,0.05,64.95,0)" xlink:href="#aV"/><use transform="matrix(0.05,0,0,0.05,74.95,0)" xlink:href="#ay"/><use transform="matrix(0.05,0,0,0.05,89.9,0)" xlink:href="#aW"/><use transform="matrix(0.05,0,0,0.05,99.9,0)" xlink:href="#az"/><use transform="matrix(0.05,0,0,0.05,109.9,0)" xlink:href="#aN"/></g><g id="V"><use transform="matrix(0.05,0,0,0.05,0,0)" xlink:href="#aw"/><use transform="matrix(0.05,0,0,0.05,10,0)" xlink:href="#az"/><use transform="matrix(0.05,0,0,0.05,20,0)" xlink:href="#aq"/><use transform="matrix(0.05,0,0,0.05,23.95,0)" xlink:href="#aO"/><use transform="matrix(0.05,0,0,0.05,33.95,0)" xlink:href="#aK"/><use transform="matrix(0.05,0,0,0.05,43.95,0)" xlink:href="#aW"/><use transform="matrix(0.05,0,0,0.05,53.95,0)" xlink:href="#aL"/><use transform="matrix(0.05,0,0,0.05,63.95,0)" xlink:href="#aN"/><use transform="matrix(0.05,0,0,0.05,69.9,0)" xlink:href="#aK"/><use transform="matrix(0.05,0,0,0.05,79.9,0)" xlink:href="#aL"/><use transform="matrix(0.05,0,0,0.05,89.9,0)" xlink:href="#aL"/><use transform="matrix(0.05,0,0,0.05,99.9,0)" xlink:href="#ar"/></g><g id="W"><use transform="matrix(0.05,0,0,0.05,0,0)" xlink:href="#aH"/><use transform="matrix(0.05,0,0,0.05,9,0)" xlink:href="#aL"/><use transform="matrix(0.05,0,0,0.05,19,0)" xlink:href="#ay"/><use transform="matrix(0.05,0,0,0.05,33.95,0)" xlink:href="#aI"/><use transform="matrix(0.05,0,0,0.05,43.95,0)" xlink:href="#aM"/><use transform="matrix(0.05,0,0,0.05,47.900000000000006,0)" xlink:href="#az"/><use transform="matrix(0.05,0,0,0.05,57.900000000000006,0)" xlink:href="#ay"/><use transform="matrix(0.05,0,0,0.05,72.85000000000001,0)" xlink:href="#az"/><use transform="matrix(0.05,0,0,0.05,82.85000000000001,0)" xlink:href="#aw"/><use transform="matrix(0.05,0,0,0.05,92.85000000000001,0)" xlink:href="#aQ"/></g><g id="X"><use transform="matrix(0.05,0,0,0.05,0,0)" xlink:href="#aH"/><use transform="matrix(0.05,0,0,0.05,9,0)" xlink:href="#aV"/><use transform="matrix(0.05,0,0,0.05,19,0)" xlink:href="#aP"/><use transform="matrix(0.05,0,0,0.05,28,0)" xlink:href="#aQ"/><use transform="matrix(0.05,0,0,0.05,33,0)" xlink:href="#aL"/><use transform="matrix(0.05,0,0,0.05,43,0)" xlink:href="#ay"/><use transform="matrix(0.05,0,0,0.05,57.95,0)" xlink:href="#az"/><use transform="matrix(0.05,0,0,0.05,67.95,0)" xlink:href="#aN"/><use transform="matrix(0.05,0,0,0.05,73.9,0)" xlink:href="#aR"/><use transform="matrix(0.05,0,0,0.05,83.9,0)" xlink:href="#aq"/><use transform="matrix(0.05,0,0,0.05,87.85000000000001,0)" xlink:href="#ar"/></g><g id="Y"><use transform="matrix(0.05,0,0,0.05,0,0)" xlink:href="#aj"/><use transform="matrix(0.05,0,0,0.05,10,0)" xlink:href="#ak"/><use transform="matrix(0.05,0,0,0.05,19,0)" xlink:href="#ao"/><use transform="matrix(0.05,0,0,0.05,29,0)" xlink:href="#ap"/><use transform="matrix(0.05,0,0,0.05,34.95,0)" xlink:href="#ak"/></g><g id="Z"><use transform="matrix(0.05,0,0,0.05,0,0)" xlink:href="#aq"/><use transform="matrix(0.05,0,0,0.05,3.95,0)" xlink:href="#ar"/></g><g id="aa"><use transform="matrix(0.05,0,0,0.05,0,0)" xlink:href="#as"/><use transform="matrix(0.05,0,0,0.05,10,0)" xlink:href="#at"/><use transform="matrix(0.05,0,0,0.05,13.949999999999998,0)" xlink:href="#au"/><use transform="matrix(0.05,0,0,0.05,23.95,0)" xlink:href="#at"/><use transform="matrix(0.05,0,0,0.05,27.899999999999995,0)" xlink:href="#av"/><use transform="matrix(0.05,0,0,0.05,37.9,0)" xlink:href="#al"/></g><g id="ab"><use transform="matrix(0.05,0,0,0.05,0,0)" xlink:href="#aJ"/><use transform="matrix(0.05,0,0,0.05,5,0)" xlink:href="#aV"/><use transform="matrix(0.05,0,0,0.05,15,0)" xlink:href="#aM"/><use transform="matrix(0.05,0,0,0.05,18.95,0)" xlink:href="#aM"/><use transform="matrix(0.05,0,0,0.05,22.9,0)" xlink:href="#aR"/><use transform="matrix(0.05,0,0,0.05,32.9,0)" xlink:href="#aw"/><use transform="matrix(0.05,0,0,0.05,42.9,0)" xlink:href="#ax"/><use transform="matrix(0.05,0,0,0.05,52.900000000000006,0)" xlink:href="#ay"/><use transform="matrix(0.05,0,0,0.05,67.85,0)" xlink:href="#az"/></g><g id="ac"><use transform="matrix(0.05,0,0,0.05,0,0)" xlink:href="#aA"/><use transform="matrix(0.05,0,0,0.05,9,0)" xlink:href="#aB"/><use transform="matrix(0.05,0,0,0.05,19,0)" xlink:href="#ap"/><use transform="matrix(0.05,0,0,0.05,24.95,0)" xlink:href="#ai"/><use transform="matrix(0.05,0,0,0.05,33.95,0)" xlink:href="#aC"/><use transform="matrix(0.05,0,0,0.05,43.95,0)" xlink:href="#aB"/><use transform="matrix(0.05,0,0,0.05,53.95,0)" xlink:href="#ap"/><use transform="matrix(0.05,0,0,0.05,59.900000000000006,0)" xlink:href="#aD"/><use transform="matrix(0.05,0,0,0.05,65.85000000000001,0)" xlink:href="#aE"/><use transform="matrix(0.05,0,0,0.05,75.85000000000001,0)" xlink:href="#aF"/><use transform="matrix(0.05,0,0,0.05,85.85000000000001,0)" xlink:href="#aF"/><use transform="matrix(0.05,0,0,0.05,95.85000000000001,0)" xlink:href="#aG"/></g><g id="ad"><use transform="matrix(0.05,0,0,0.05,0,0)" xlink:href="#az"/><use transform="matrix(0.05,0,0,0.05,10,0)" xlink:href="#ay"/><use transform="matrix(0.05,0,0,0.05,24.950000000000003,0)" xlink:href="#ax"/><use transform="matrix(0.05,0,0,0.05,34.95,0)" xlink:href="#aq"/><use transform="matrix(0.05,0,0,0.05,38.900000000000006,0)" xlink:href="#aM"/></g><g id="ae"><use transform="matrix(0.05,0,0,0.05,0,0)" xlink:href="#aV"/><use transform="matrix(0.05,0,0,0.05,10,0)" xlink:href="#aP"/><use transform="matrix(0.05,0,0,0.05,19,0)" xlink:href="#az"/><use transform="matrix(0.05,0,0,0.05,29,0)" xlink:href="#aN"/><use transform="matrix(0.05,0,0,0.05,34.95,0)" xlink:href="#aw"/><use transform="matrix(0.05,0,0,0.05,44.95,0)" xlink:href="#ax"/><use transform="matrix(0.05,0,0,0.05,54.95,0)" xlink:href="#ay"/><use transform="matrix(0.05,0,0,0.05,69.9,0)" xlink:href="#az"/></g><path d="M206 0h-36l-40-164L89 0H53L-1-190h32L70-26l43-164h34l41 164 42-164h31" id="bK"/><g id="af"><use transform="matrix(0.05,0,0,0.05,0,0)" xlink:href="#aI"/><use transform="matrix(0.05,0,0,0.05,10,0)" xlink:href="#ax"/><use transform="matrix(0.05,0,0,0.05,20,0)" xlink:href="#aP"/><use transform="matrix(0.05,0,0,0.05,29,0)" xlink:href="#aP"/><use transform="matrix(0.05,0,0,0.05,38,0)" xlink:href="#bK"/><use transform="matrix(0.05,0,0,0.05,50.95,0)" xlink:href="#aL"/><use transform="matrix(0.05,0,0,0.05,60.95,0)" xlink:href="#aN"/><use transform="matrix(0.05,0,0,0.05,66.9,0)" xlink:href="#ar"/></g><g id="ag"><use transform="matrix(0.05,0,0,0.05,0,0)" xlink:href="#aN"/><use transform="matrix(0.05,0,0,0.05,5.95,0)" xlink:href="#aL"/><use transform="matrix(0.05,0,0,0.05,15.949999999999998,0)" xlink:href="#aM"/><use transform="matrix(0.05,0,0,0.05,19.9,0)" xlink:href="#az"/></g><g id="ah"><use transform="matrix(0.05,0,0,0.05,0,0)" xlink:href="#ak"/><use transform="matrix(0.05,0,0,0.05,9,0)" xlink:href="#an"/><use transform="matrix(0.05,0,0,0.05,23.950000000000003,0)" xlink:href="#aB"/><use transform="matrix(0.05,0,0,0.05,33.95,0)" xlink:href="#bF"/><use transform="matrix(0.05,0,0,0.05,37.900000000000006,0)" xlink:href="#bF"/><use transform="matrix(0.05,0,0,0.05,41.85000000000001,0)" xlink:href="#at"/><use transform="matrix(0.05,0,0,0.05,45.80000000000001,0)" xlink:href="#av"/><use transform="matrix(0.05,0,0,0.05,55.80000000000001,0)" xlink:href="#al"/></g></defs></g></svg>